solid OpenSCAD_Model
  facet normal 1 -0 0
    outer loop
      vertex -2.6 -2.6 2
      vertex -2.6 2.6 0
      vertex -2.6 2.6 2
    endloop
  endfacet
  facet normal 1 0 0
    outer loop
      vertex -2.6 2.6 0
      vertex -2.6 -2.6 2
      vertex -2.6 -2.6 0
    endloop
  endfacet
  facet normal -1 0 0
    outer loop
      vertex 2.6 -2.6 0
      vertex 2.6 2.6 2
      vertex 2.6 2.6 0
    endloop
  endfacet
  facet normal -1 -0 0
    outer loop
      vertex 2.6 2.6 2
      vertex 2.6 -2.6 0
      vertex 2.6 -2.6 2
    endloop
  endfacet
  facet normal 0 -1 0
    outer loop
      vertex -2.6 2.6 0
      vertex 2.6 2.6 2
      vertex -2.6 2.6 2
    endloop
  endfacet
  facet normal 0 -1 -0
    outer loop
      vertex 2.6 2.6 2
      vertex -2.6 2.6 0
      vertex 2.6 2.6 0
    endloop
  endfacet
  facet normal 0 1 -0
    outer loop
      vertex 2.6 -2.6 0
      vertex -2.6 -2.6 2
      vertex 2.6 -2.6 2
    endloop
  endfacet
  facet normal 0 1 0
    outer loop
      vertex -2.6 -2.6 2
      vertex 2.6 -2.6 0
      vertex -2.6 -2.6 0
    endloop
  endfacet
  facet normal 1 -0 0
    outer loop
      vertex 4.34444 -2.6 2
      vertex 4.34444 2.6 0
      vertex 4.34444 2.6 2
    endloop
  endfacet
  facet normal 1 0 0
    outer loop
      vertex 4.34444 2.6 0
      vertex 4.34444 -2.6 2
      vertex 4.34444 -2.6 0
    endloop
  endfacet
  facet normal -1 0 0
    outer loop
      vertex 9.54444 -2.6 0
      vertex 9.54444 2.6 2
      vertex 9.54444 2.6 0
    endloop
  endfacet
  facet normal -1 -0 0
    outer loop
      vertex 9.54444 2.6 2
      vertex 9.54444 -2.6 0
      vertex 9.54444 -2.6 2
    endloop
  endfacet
  facet normal 0 -1 0
    outer loop
      vertex 4.34444 2.6 0
      vertex 9.54444 2.6 2
      vertex 4.34444 2.6 2
    endloop
  endfacet
  facet normal 0 -1 -0
    outer loop
      vertex 9.54444 2.6 2
      vertex 4.34444 2.6 0
      vertex 9.54444 2.6 0
    endloop
  endfacet
  facet normal 0 1 -0
    outer loop
      vertex 9.54444 -2.6 0
      vertex 4.34444 -2.6 2
      vertex 9.54444 -2.6 2
    endloop
  endfacet
  facet normal 0 1 0
    outer loop
      vertex 4.34444 -2.6 2
      vertex 9.54444 -2.6 0
      vertex 4.34444 -2.6 0
    endloop
  endfacet
  facet normal 1 -0 0
    outer loop
      vertex 11.2889 -2.6 2
      vertex 11.2889 2.6 0
      vertex 11.2889 2.6 2
    endloop
  endfacet
  facet normal 1 0 0
    outer loop
      vertex 11.2889 2.6 0
      vertex 11.2889 -2.6 2
      vertex 11.2889 -2.6 0
    endloop
  endfacet
  facet normal -1 0 0
    outer loop
      vertex 16.4889 -2.6 0
      vertex 16.4889 2.6 2
      vertex 16.4889 2.6 0
    endloop
  endfacet
  facet normal -1 -0 0
    outer loop
      vertex 16.4889 2.6 2
      vertex 16.4889 -2.6 0
      vertex 16.4889 -2.6 2
    endloop
  endfacet
  facet normal 0 -1 0
    outer loop
      vertex 11.2889 2.6 0
      vertex 16.4889 2.6 2
      vertex 11.2889 2.6 2
    endloop
  endfacet
  facet normal 0 -1 -0
    outer loop
      vertex 16.4889 2.6 2
      vertex 11.2889 2.6 0
      vertex 16.4889 2.6 0
    endloop
  endfacet
  facet normal 0 1 -0
    outer loop
      vertex 16.4889 -2.6 0
      vertex 11.2889 -2.6 2
      vertex 16.4889 -2.6 2
    endloop
  endfacet
  facet normal 0 1 0
    outer loop
      vertex 11.2889 -2.6 2
      vertex 16.4889 -2.6 0
      vertex 11.2889 -2.6 0
    endloop
  endfacet
  facet normal 1 -0 0
    outer loop
      vertex 18.2333 -2.6 2
      vertex 18.2333 2.6 0
      vertex 18.2333 2.6 2
    endloop
  endfacet
  facet normal 1 0 0
    outer loop
      vertex 18.2333 2.6 0
      vertex 18.2333 -2.6 2
      vertex 18.2333 -2.6 0
    endloop
  endfacet
  facet normal -1 0 0
    outer loop
      vertex 23.4333 -2.6 0
      vertex 23.4333 2.6 2
      vertex 23.4333 2.6 0
    endloop
  endfacet
  facet normal -1 -0 0
    outer loop
      vertex 23.4333 2.6 2
      vertex 23.4333 -2.6 0
      vertex 23.4333 -2.6 2
    endloop
  endfacet
  facet normal 0 -1 0
    outer loop
      vertex 18.2333 2.6 0
      vertex 23.4333 2.6 2
      vertex 18.2333 2.6 2
    endloop
  endfacet
  facet normal 0 -1 -0
    outer loop
      vertex 23.4333 2.6 2
      vertex 18.2333 2.6 0
      vertex 23.4333 2.6 0
    endloop
  endfacet
  facet normal 0 1 -0
    outer loop
      vertex 23.4333 -2.6 0
      vertex 18.2333 -2.6 2
      vertex 23.4333 -2.6 2
    endloop
  endfacet
  facet normal 0 1 0
    outer loop
      vertex 18.2333 -2.6 2
      vertex 23.4333 -2.6 0
      vertex 18.2333 -2.6 0
    endloop
  endfacet
  facet normal 1 -0 0
    outer loop
      vertex 25.1778 -2.6 2
      vertex 25.1778 2.6 0
      vertex 25.1778 2.6 2
    endloop
  endfacet
  facet normal 1 0 0
    outer loop
      vertex 25.1778 2.6 0
      vertex 25.1778 -2.6 2
      vertex 25.1778 -2.6 0
    endloop
  endfacet
  facet normal -1 0 0
    outer loop
      vertex 30.3778 -2.6 0
      vertex 30.3778 2.6 2
      vertex 30.3778 2.6 0
    endloop
  endfacet
  facet normal -1 -0 0
    outer loop
      vertex 30.3778 2.6 2
      vertex 30.3778 -2.6 0
      vertex 30.3778 -2.6 2
    endloop
  endfacet
  facet normal 0 -1 0
    outer loop
      vertex 25.1778 2.6 0
      vertex 30.3778 2.6 2
      vertex 25.1778 2.6 2
    endloop
  endfacet
  facet normal 0 -1 -0
    outer loop
      vertex 30.3778 2.6 2
      vertex 25.1778 2.6 0
      vertex 30.3778 2.6 0
    endloop
  endfacet
  facet normal 0 1 -0
    outer loop
      vertex 30.3778 -2.6 0
      vertex 25.1778 -2.6 2
      vertex 30.3778 -2.6 2
    endloop
  endfacet
  facet normal 0 1 0
    outer loop
      vertex 25.1778 -2.6 2
      vertex 30.3778 -2.6 0
      vertex 25.1778 -2.6 0
    endloop
  endfacet
  facet normal 1 -0 0
    outer loop
      vertex 32.1222 -2.6 2
      vertex 32.1222 2.6 0
      vertex 32.1222 2.6 2
    endloop
  endfacet
  facet normal 1 0 0
    outer loop
      vertex 32.1222 2.6 0
      vertex 32.1222 -2.6 2
      vertex 32.1222 -2.6 0
    endloop
  endfacet
  facet normal -1 0 0
    outer loop
      vertex 37.3222 -2.6 0
      vertex 37.3222 2.6 2
      vertex 37.3222 2.6 0
    endloop
  endfacet
  facet normal -1 -0 0
    outer loop
      vertex 37.3222 2.6 2
      vertex 37.3222 -2.6 0
      vertex 37.3222 -2.6 2
    endloop
  endfacet
  facet normal 0 1 -0
    outer loop
      vertex 37.3222 -2.6 0
      vertex 32.1222 -2.6 2
      vertex 37.3222 -2.6 2
    endloop
  endfacet
  facet normal 0 1 0
    outer loop
      vertex 32.1222 -2.6 2
      vertex 37.3222 -2.6 0
      vertex 32.1222 -2.6 0
    endloop
  endfacet
  facet normal 0 -1 0
    outer loop
      vertex 32.1222 2.6 0
      vertex 37.3222 2.6 2
      vertex 32.1222 2.6 2
    endloop
  endfacet
  facet normal 0 -1 -0
    outer loop
      vertex 37.3222 2.6 2
      vertex 32.1222 2.6 0
      vertex 37.3222 2.6 0
    endloop
  endfacet
  facet normal 1 -0 0
    outer loop
      vertex 39.0667 -2.6 2
      vertex 39.0667 2.6 0
      vertex 39.0667 2.6 2
    endloop
  endfacet
  facet normal 1 0 0
    outer loop
      vertex 39.0667 2.6 0
      vertex 39.0667 -2.6 2
      vertex 39.0667 -2.6 0
    endloop
  endfacet
  facet normal -1 0 0
    outer loop
      vertex 44.2667 -2.6 0
      vertex 44.2667 2.6 2
      vertex 44.2667 2.6 0
    endloop
  endfacet
  facet normal -1 -0 0
    outer loop
      vertex 44.2667 2.6 2
      vertex 44.2667 -2.6 0
      vertex 44.2667 -2.6 2
    endloop
  endfacet
  facet normal 0 1 -0
    outer loop
      vertex 44.2667 -2.6 0
      vertex 39.0667 -2.6 2
      vertex 44.2667 -2.6 2
    endloop
  endfacet
  facet normal 0 1 0
    outer loop
      vertex 39.0667 -2.6 2
      vertex 44.2667 -2.6 0
      vertex 39.0667 -2.6 0
    endloop
  endfacet
  facet normal 0 -1 0
    outer loop
      vertex 39.0667 2.6 0
      vertex 44.2667 2.6 2
      vertex 39.0667 2.6 2
    endloop
  endfacet
  facet normal 0 -1 -0
    outer loop
      vertex 44.2667 2.6 2
      vertex 39.0667 2.6 0
      vertex 44.2667 2.6 0
    endloop
  endfacet
  facet normal 1 -0 0
    outer loop
      vertex 46.0111 -2.6 2
      vertex 46.0111 2.6 0
      vertex 46.0111 2.6 2
    endloop
  endfacet
  facet normal 1 0 0
    outer loop
      vertex 46.0111 2.6 0
      vertex 46.0111 -2.6 2
      vertex 46.0111 -2.6 0
    endloop
  endfacet
  facet normal -1 0 0
    outer loop
      vertex 51.2111 -2.6 0
      vertex 51.2111 2.6 2
      vertex 51.2111 2.6 0
    endloop
  endfacet
  facet normal -1 -0 0
    outer loop
      vertex 51.2111 2.6 2
      vertex 51.2111 -2.6 0
      vertex 51.2111 -2.6 2
    endloop
  endfacet
  facet normal 0 -1 0
    outer loop
      vertex 46.0111 2.6 0
      vertex 51.2111 2.6 2
      vertex 46.0111 2.6 2
    endloop
  endfacet
  facet normal 0 -1 -0
    outer loop
      vertex 51.2111 2.6 2
      vertex 46.0111 2.6 0
      vertex 51.2111 2.6 0
    endloop
  endfacet
  facet normal 0 1 -0
    outer loop
      vertex 51.2111 -2.6 0
      vertex 46.0111 -2.6 2
      vertex 51.2111 -2.6 2
    endloop
  endfacet
  facet normal 0 1 0
    outer loop
      vertex 46.0111 -2.6 2
      vertex 51.2111 -2.6 0
      vertex 46.0111 -2.6 0
    endloop
  endfacet
  facet normal 1 -0 0
    outer loop
      vertex 52.9556 -2.6 2
      vertex 52.9556 2.6 0
      vertex 52.9556 2.6 2
    endloop
  endfacet
  facet normal 1 0 0
    outer loop
      vertex 52.9556 2.6 0
      vertex 52.9556 -2.6 2
      vertex 52.9556 -2.6 0
    endloop
  endfacet
  facet normal -1 0 0
    outer loop
      vertex 58.1556 -2.6 0
      vertex 58.1556 2.6 2
      vertex 58.1556 2.6 0
    endloop
  endfacet
  facet normal -1 -0 0
    outer loop
      vertex 58.1556 2.6 2
      vertex 58.1556 -2.6 0
      vertex 58.1556 -2.6 2
    endloop
  endfacet
  facet normal 0 -1 0
    outer loop
      vertex 52.9556 2.6 0
      vertex 58.1556 2.6 2
      vertex 52.9556 2.6 2
    endloop
  endfacet
  facet normal 0 -1 -0
    outer loop
      vertex 58.1556 2.6 2
      vertex 52.9556 2.6 0
      vertex 58.1556 2.6 0
    endloop
  endfacet
  facet normal 0 1 -0
    outer loop
      vertex 58.1556 -2.6 0
      vertex 52.9556 -2.6 2
      vertex 58.1556 -2.6 2
    endloop
  endfacet
  facet normal 0 1 0
    outer loop
      vertex 52.9556 -2.6 2
      vertex 58.1556 -2.6 0
      vertex 52.9556 -2.6 0
    endloop
  endfacet
  facet normal 1 -0 0
    outer loop
      vertex 59.9 -2.6 2
      vertex 59.9 2.6 0
      vertex 59.9 2.6 2
    endloop
  endfacet
  facet normal 1 0 0
    outer loop
      vertex 59.9 2.6 0
      vertex 59.9 -2.6 2
      vertex 59.9 -2.6 0
    endloop
  endfacet
  facet normal -1 0 0
    outer loop
      vertex 65.1 -2.6 0
      vertex 65.1 2.6 2
      vertex 65.1 2.6 0
    endloop
  endfacet
  facet normal -1 -0 0
    outer loop
      vertex 65.1 2.6 2
      vertex 65.1 -2.6 0
      vertex 65.1 -2.6 2
    endloop
  endfacet
  facet normal 0 -1 0
    outer loop
      vertex 59.9 2.6 0
      vertex 65.1 2.6 2
      vertex 59.9 2.6 2
    endloop
  endfacet
  facet normal 0 -1 -0
    outer loop
      vertex 65.1 2.6 2
      vertex 59.9 2.6 0
      vertex 65.1 2.6 0
    endloop
  endfacet
  facet normal 0 1 -0
    outer loop
      vertex 65.1 -2.6 0
      vertex 59.9 -2.6 2
      vertex 65.1 -2.6 2
    endloop
  endfacet
  facet normal 0 1 0
    outer loop
      vertex 59.9 -2.6 2
      vertex 65.1 -2.6 0
      vertex 59.9 -2.6 0
    endloop
  endfacet
  facet normal 1 -0 0
    outer loop
      vertex 66.8444 -2.6 2
      vertex 66.8444 2.6 0
      vertex 66.8444 2.6 2
    endloop
  endfacet
  facet normal 1 0 0
    outer loop
      vertex 66.8444 2.6 0
      vertex 66.8444 -2.6 2
      vertex 66.8444 -2.6 0
    endloop
  endfacet
  facet normal -1 0 0
    outer loop
      vertex 72.0444 -2.6 0
      vertex 72.0444 2.6 2
      vertex 72.0444 2.6 0
    endloop
  endfacet
  facet normal -1 -0 0
    outer loop
      vertex 72.0444 2.6 2
      vertex 72.0444 -2.6 0
      vertex 72.0444 -2.6 2
    endloop
  endfacet
  facet normal 0 -1 0
    outer loop
      vertex 66.8444 2.6 0
      vertex 72.0444 2.6 2
      vertex 66.8444 2.6 2
    endloop
  endfacet
  facet normal 0 -1 -0
    outer loop
      vertex 72.0444 2.6 2
      vertex 66.8444 2.6 0
      vertex 72.0444 2.6 0
    endloop
  endfacet
  facet normal 0 1 -0
    outer loop
      vertex 72.0444 -2.6 0
      vertex 66.8444 -2.6 2
      vertex 72.0444 -2.6 2
    endloop
  endfacet
  facet normal 0 1 0
    outer loop
      vertex 66.8444 -2.6 2
      vertex 72.0444 -2.6 0
      vertex 66.8444 -2.6 0
    endloop
  endfacet
  facet normal -1 0 0
    outer loop
      vertex -5 15 0
      vertex -5 7 2
      vertex -5 15 5
    endloop
  endfacet
  facet normal -1 0 0
    outer loop
      vertex -5 15 0
      vertex -5 -7 2
      vertex -5 7 2
    endloop
  endfacet
  facet normal -1 0 0
    outer loop
      vertex -5 -15 0
      vertex -5 -7 2
      vertex -5 15 0
    endloop
  endfacet
  facet normal -1 0 0
    outer loop
      vertex -5 -15 5
      vertex -5 -7 2
      vertex -5 -15 0
    endloop
  endfacet
  facet normal -1 0 0
    outer loop
      vertex -5 -7 2
      vertex -5 -15 5
      vertex -5 -7 5
    endloop
  endfacet
  facet normal -1 -0 0
    outer loop
      vertex -5 15 5
      vertex -5 7 2
      vertex -5 7 5
    endloop
  endfacet
  facet normal -0 0 1
    outer loop
      vertex -5 -7 5
      vertex 75 -15 5
      vertex 75 -7 5
    endloop
  endfacet
  facet normal 0 0 1
    outer loop
      vertex 75 -15 5
      vertex -5 -7 5
      vertex -5 -15 5
    endloop
  endfacet
  facet normal -0 0 1
    outer loop
      vertex -5 15 5
      vertex 75 7 5
      vertex 75 15 5
    endloop
  endfacet
  facet normal 0 0 1
    outer loop
      vertex 75 7 5
      vertex -5 15 5
      vertex -5 7 5
    endloop
  endfacet
  facet normal 1 0 0
    outer loop
      vertex 75 -7 5
      vertex 75 -15 5
      vertex 75 -7 2
    endloop
  endfacet
  facet normal 1 0 0
    outer loop
      vertex 75 7 2
      vertex 75 15 5
      vertex 75 7 5
    endloop
  endfacet
  facet normal 1 0 0
    outer loop
      vertex 75 15 5
      vertex 75 7 2
      vertex 75 15 0
    endloop
  endfacet
  facet normal 1 -0 0
    outer loop
      vertex 75 -7 2
      vertex 75 15 0
      vertex 75 7 2
    endloop
  endfacet
  facet normal 1 0 0
    outer loop
      vertex 75 -7 2
      vertex 75 -15 0
      vertex 75 15 0
    endloop
  endfacet
  facet normal 1 0 0
    outer loop
      vertex 75 -15 0
      vertex 75 -7 2
      vertex 75 -15 5
    endloop
  endfacet
  facet normal 0 0 -1
    outer loop
      vertex 75 -15 0
      vertex 72.0444 -2.6 0
      vertex 75 15 0
    endloop
  endfacet
  facet normal 0 0 -1
    outer loop
      vertex 75 -15 0
      vertex 66.8444 -2.6 0
      vertex 72.0444 -2.6 0
    endloop
  endfacet
  facet normal 0 0 -1
    outer loop
      vertex 66.8444 -2.6 0
      vertex 65.1 -2.6 0
      vertex 66.8444 2.6 0
    endloop
  endfacet
  facet normal 0 0 -1
    outer loop
      vertex 75 -15 0
      vertex 65.1 -2.6 0
      vertex 66.8444 -2.6 0
    endloop
  endfacet
  facet normal 0 0 -1
    outer loop
      vertex 75 -15 0
      vertex 59.9 -2.6 0
      vertex 65.1 -2.6 0
    endloop
  endfacet
  facet normal 0 0 -1
    outer loop
      vertex 59.9 -2.6 0
      vertex 58.1556 -2.6 0
      vertex 59.9 2.6 0
    endloop
  endfacet
  facet normal 0 0 -1
    outer loop
      vertex 75 -15 0
      vertex 58.1556 -2.6 0
      vertex 59.9 -2.6 0
    endloop
  endfacet
  facet normal 0 0 -1
    outer loop
      vertex 75 -15 0
      vertex 52.9556 -2.6 0
      vertex 58.1556 -2.6 0
    endloop
  endfacet
  facet normal 0 0 -1
    outer loop
      vertex 52.9556 -2.6 0
      vertex 51.2111 -2.6 0
      vertex 52.9556 2.6 0
    endloop
  endfacet
  facet normal 0 0 -1
    outer loop
      vertex 75 -15 0
      vertex 51.2111 -2.6 0
      vertex 52.9556 -2.6 0
    endloop
  endfacet
  facet normal 0 0 -1
    outer loop
      vertex 75 -15 0
      vertex 46.0111 -2.6 0
      vertex 51.2111 -2.6 0
    endloop
  endfacet
  facet normal 0 0 -1
    outer loop
      vertex 46.0111 -2.6 0
      vertex 44.2667 -2.6 0
      vertex 46.0111 2.6 0
    endloop
  endfacet
  facet normal 0 0 -1
    outer loop
      vertex 75 -15 0
      vertex 44.2667 -2.6 0
      vertex 46.0111 -2.6 0
    endloop
  endfacet
  facet normal 0 0 -1
    outer loop
      vertex 75 -15 0
      vertex 39.0667 -2.6 0
      vertex 44.2667 -2.6 0
    endloop
  endfacet
  facet normal 0 0 -1
    outer loop
      vertex 39.0667 -2.6 0
      vertex 37.3222 -2.6 0
      vertex 39.0667 2.6 0
    endloop
  endfacet
  facet normal 0 0 -1
    outer loop
      vertex 75 -15 0
      vertex 37.3222 -2.6 0
      vertex 39.0667 -2.6 0
    endloop
  endfacet
  facet normal 0 0 -1
    outer loop
      vertex 75 -15 0
      vertex 32.1222 -2.6 0
      vertex 37.3222 -2.6 0
    endloop
  endfacet
  facet normal 0 0 -1
    outer loop
      vertex 32.1222 -2.6 0
      vertex 30.3778 -2.6 0
      vertex 32.1222 2.6 0
    endloop
  endfacet
  facet normal 0 0 -1
    outer loop
      vertex -5 -15 0
      vertex 32.1222 -2.6 0
      vertex 75 -15 0
    endloop
  endfacet
  facet normal -0 0 -1
    outer loop
      vertex 32.1222 -2.6 0
      vertex -5 -15 0
      vertex 30.3778 -2.6 0
    endloop
  endfacet
  facet normal 0 0 -1
    outer loop
      vertex 25.1778 -2.6 0
      vertex 23.4333 -2.6 0
      vertex 25.1778 2.6 0
    endloop
  endfacet
  facet normal -0 0 -1
    outer loop
      vertex 30.3778 -2.6 0
      vertex -5 -15 0
      vertex 25.1778 -2.6 0
    endloop
  endfacet
  facet normal -0 0 -1
    outer loop
      vertex 25.1778 -2.6 0
      vertex -5 -15 0
      vertex 23.4333 -2.6 0
    endloop
  endfacet
  facet normal 0 0 -1
    outer loop
      vertex 18.2333 -2.6 0
      vertex 16.4889 -2.6 0
      vertex 18.2333 2.6 0
    endloop
  endfacet
  facet normal -0 0 -1
    outer loop
      vertex 23.4333 -2.6 0
      vertex -5 -15 0
      vertex 18.2333 -2.6 0
    endloop
  endfacet
  facet normal -0 0 -1
    outer loop
      vertex 18.2333 -2.6 0
      vertex -5 -15 0
      vertex 16.4889 -2.6 0
    endloop
  endfacet
  facet normal 0 0 -1
    outer loop
      vertex 11.2889 -2.6 0
      vertex 9.54444 -2.6 0
      vertex 11.2889 2.6 0
    endloop
  endfacet
  facet normal -0 0 -1
    outer loop
      vertex 16.4889 -2.6 0
      vertex -5 -15 0
      vertex 11.2889 -2.6 0
    endloop
  endfacet
  facet normal -0 0 -1
    outer loop
      vertex 11.2889 -2.6 0
      vertex -5 -15 0
      vertex 9.54444 -2.6 0
    endloop
  endfacet
  facet normal 0 0 -1
    outer loop
      vertex 4.34444 -2.6 0
      vertex 2.6 -2.6 0
      vertex 4.34444 2.6 0
    endloop
  endfacet
  facet normal -0 0 -1
    outer loop
      vertex 9.54444 -2.6 0
      vertex -5 -15 0
      vertex 4.34444 -2.6 0
    endloop
  endfacet
  facet normal -0 0 -1
    outer loop
      vertex 4.34444 -2.6 0
      vertex -5 -15 0
      vertex 2.6 -2.6 0
    endloop
  endfacet
  facet normal -0 0 -1
    outer loop
      vertex -2.6 -2.6 0
      vertex -5 -15 0
      vertex -2.6 2.6 0
    endloop
  endfacet
  facet normal -0 0 -1
    outer loop
      vertex 2.6 -2.6 0
      vertex -5 -15 0
      vertex -2.6 -2.6 0
    endloop
  endfacet
  facet normal 0 0 -1
    outer loop
      vertex 72.0444 2.6 0
      vertex 75 15 0
      vertex 72.0444 -2.6 0
    endloop
  endfacet
  facet normal 0 0 -1
    outer loop
      vertex 66.8444 2.6 0
      vertex 75 15 0
      vertex 72.0444 2.6 0
    endloop
  endfacet
  facet normal 0 0 -1
    outer loop
      vertex 65.1 2.6 0
      vertex 66.8444 2.6 0
      vertex 65.1 -2.6 0
    endloop
  endfacet
  facet normal 0 0 -1
    outer loop
      vertex 65.1 2.6 0
      vertex 75 15 0
      vertex 66.8444 2.6 0
    endloop
  endfacet
  facet normal 0 0 -1
    outer loop
      vertex 59.9 2.6 0
      vertex 75 15 0
      vertex 65.1 2.6 0
    endloop
  endfacet
  facet normal 0 0 -1
    outer loop
      vertex 58.1556 2.6 0
      vertex 59.9 2.6 0
      vertex 58.1556 -2.6 0
    endloop
  endfacet
  facet normal 0 0 -1
    outer loop
      vertex 58.1556 2.6 0
      vertex 75 15 0
      vertex 59.9 2.6 0
    endloop
  endfacet
  facet normal 0 0 -1
    outer loop
      vertex 52.9556 2.6 0
      vertex 75 15 0
      vertex 58.1556 2.6 0
    endloop
  endfacet
  facet normal 0 0 -1
    outer loop
      vertex 51.2111 2.6 0
      vertex 52.9556 2.6 0
      vertex 51.2111 -2.6 0
    endloop
  endfacet
  facet normal 0 0 -1
    outer loop
      vertex 51.2111 2.6 0
      vertex 75 15 0
      vertex 52.9556 2.6 0
    endloop
  endfacet
  facet normal 0 0 -1
    outer loop
      vertex 46.0111 2.6 0
      vertex 75 15 0
      vertex 51.2111 2.6 0
    endloop
  endfacet
  facet normal 0 0 -1
    outer loop
      vertex 44.2667 2.6 0
      vertex 46.0111 2.6 0
      vertex 44.2667 -2.6 0
    endloop
  endfacet
  facet normal 0 0 -1
    outer loop
      vertex 44.2667 2.6 0
      vertex 75 15 0
      vertex 46.0111 2.6 0
    endloop
  endfacet
  facet normal 0 0 -1
    outer loop
      vertex 39.0667 2.6 0
      vertex 75 15 0
      vertex 44.2667 2.6 0
    endloop
  endfacet
  facet normal 0 0 -1
    outer loop
      vertex 37.3222 2.6 0
      vertex 39.0667 2.6 0
      vertex 37.3222 -2.6 0
    endloop
  endfacet
  facet normal 0 0 -1
    outer loop
      vertex 37.3222 2.6 0
      vertex 75 15 0
      vertex 39.0667 2.6 0
    endloop
  endfacet
  facet normal 0 0 -1
    outer loop
      vertex 32.1222 2.6 0
      vertex 75 15 0
      vertex 37.3222 2.6 0
    endloop
  endfacet
  facet normal 0 0 -1
    outer loop
      vertex 30.3778 2.6 0
      vertex 32.1222 2.6 0
      vertex 30.3778 -2.6 0
    endloop
  endfacet
  facet normal 0 0 -1
    outer loop
      vertex -5 15 0
      vertex 32.1222 2.6 0
      vertex 30.3778 2.6 0
    endloop
  endfacet
  facet normal 0 0 -1
    outer loop
      vertex -5 15 0
      vertex 30.3778 2.6 0
      vertex 25.1778 2.6 0
    endloop
  endfacet
  facet normal 0 0 -1
    outer loop
      vertex 23.4333 2.6 0
      vertex 25.1778 2.6 0
      vertex 23.4333 -2.6 0
    endloop
  endfacet
  facet normal 0 0 -1
    outer loop
      vertex -5 15 0
      vertex 25.1778 2.6 0
      vertex 23.4333 2.6 0
    endloop
  endfacet
  facet normal 0 0 -1
    outer loop
      vertex -5 15 0
      vertex 23.4333 2.6 0
      vertex 18.2333 2.6 0
    endloop
  endfacet
  facet normal 0 0 -1
    outer loop
      vertex 16.4889 2.6 0
      vertex 18.2333 2.6 0
      vertex 16.4889 -2.6 0
    endloop
  endfacet
  facet normal 0 0 -1
    outer loop
      vertex -5 15 0
      vertex 18.2333 2.6 0
      vertex 16.4889 2.6 0
    endloop
  endfacet
  facet normal 0 0 -1
    outer loop
      vertex -5 15 0
      vertex 16.4889 2.6 0
      vertex 11.2889 2.6 0
    endloop
  endfacet
  facet normal 0 0 -1
    outer loop
      vertex 9.54444 2.6 0
      vertex 11.2889 2.6 0
      vertex 9.54444 -2.6 0
    endloop
  endfacet
  facet normal 0 0 -1
    outer loop
      vertex -5 15 0
      vertex 11.2889 2.6 0
      vertex 9.54444 2.6 0
    endloop
  endfacet
  facet normal 0 0 -1
    outer loop
      vertex -5 15 0
      vertex 9.54444 2.6 0
      vertex 4.34444 2.6 0
    endloop
  endfacet
  facet normal 0 0 -1
    outer loop
      vertex 2.6 2.6 0
      vertex 4.34444 2.6 0
      vertex 2.6 -2.6 0
    endloop
  endfacet
  facet normal 0 0 -1
    outer loop
      vertex -5 15 0
      vertex 4.34444 2.6 0
      vertex 2.6 2.6 0
    endloop
  endfacet
  facet normal 0 0 -1
    outer loop
      vertex -5 15 0
      vertex 2.6 2.6 0
      vertex -2.6 2.6 0
    endloop
  endfacet
  facet normal 0 0 -1
    outer loop
      vertex 32.1222 2.6 0
      vertex -5 15 0
      vertex 75 15 0
    endloop
  endfacet
  facet normal 0 0 -1
    outer loop
      vertex -5 15 0
      vertex -2.6 2.6 0
      vertex -5 -15 0
    endloop
  endfacet
  facet normal 0 -1 0
    outer loop
      vertex -5 -15 0
      vertex 75 -15 5
      vertex -5 -15 5
    endloop
  endfacet
  facet normal 0 -1 -0
    outer loop
      vertex 75 -15 5
      vertex -5 -15 0
      vertex 75 -15 0
    endloop
  endfacet
  facet normal 0 1 -0
    outer loop
      vertex 75 15 0
      vertex -5 15 5
      vertex 75 15 5
    endloop
  endfacet
  facet normal 0 1 0
    outer loop
      vertex -5 15 5
      vertex 75 15 0
      vertex -5 15 0
    endloop
  endfacet
  facet normal 0 -1 0
    outer loop
      vertex -5 7 2
      vertex 75 7 5
      vertex -5 7 5
    endloop
  endfacet
  facet normal 0 -1 -0
    outer loop
      vertex 75 7 5
      vertex -5 7 2
      vertex 75 7 2
    endloop
  endfacet
  facet normal 0 0 1
    outer loop
      vertex 75 7 2
      vertex 72.0444 2.6 2
      vertex 75 -7 2
    endloop
  endfacet
  facet normal 0 0 1
    outer loop
      vertex 75 7 2
      vertex 66.8444 2.6 2
      vertex 72.0444 2.6 2
    endloop
  endfacet
  facet normal 0 0 1
    outer loop
      vertex 66.8444 2.6 2
      vertex 65.1 2.6 2
      vertex 66.8444 -2.6 2
    endloop
  endfacet
  facet normal 0 0 1
    outer loop
      vertex 75 7 2
      vertex 65.1 2.6 2
      vertex 66.8444 2.6 2
    endloop
  endfacet
  facet normal 0 0 1
    outer loop
      vertex 75 7 2
      vertex 59.9 2.6 2
      vertex 65.1 2.6 2
    endloop
  endfacet
  facet normal 0 0 1
    outer loop
      vertex 59.9 2.6 2
      vertex 58.1556 2.6 2
      vertex 59.9 -2.6 2
    endloop
  endfacet
  facet normal 0 0 1
    outer loop
      vertex 75 7 2
      vertex 58.1556 2.6 2
      vertex 59.9 2.6 2
    endloop
  endfacet
  facet normal 0 0 1
    outer loop
      vertex 75 7 2
      vertex 52.9556 2.6 2
      vertex 58.1556 2.6 2
    endloop
  endfacet
  facet normal 0 0 1
    outer loop
      vertex 52.9556 2.6 2
      vertex 51.2111 2.6 2
      vertex 52.9556 -2.6 2
    endloop
  endfacet
  facet normal 0 0 1
    outer loop
      vertex 75 7 2
      vertex 51.2111 2.6 2
      vertex 52.9556 2.6 2
    endloop
  endfacet
  facet normal 0 0 1
    outer loop
      vertex 75 7 2
      vertex 46.0111 2.6 2
      vertex 51.2111 2.6 2
    endloop
  endfacet
  facet normal 0 0 1
    outer loop
      vertex 46.0111 2.6 2
      vertex 44.2667 2.6 2
      vertex 46.0111 -2.6 2
    endloop
  endfacet
  facet normal 0 0 1
    outer loop
      vertex 75 7 2
      vertex 44.2667 2.6 2
      vertex 46.0111 2.6 2
    endloop
  endfacet
  facet normal 0 0 1
    outer loop
      vertex 75 7 2
      vertex 39.0667 2.6 2
      vertex 44.2667 2.6 2
    endloop
  endfacet
  facet normal 0 0 1
    outer loop
      vertex 39.0667 2.6 2
      vertex 37.3222 2.6 2
      vertex 39.0667 -2.6 2
    endloop
  endfacet
  facet normal 0 0 1
    outer loop
      vertex 75 7 2
      vertex 37.3222 2.6 2
      vertex 39.0667 2.6 2
    endloop
  endfacet
  facet normal 0 0 1
    outer loop
      vertex 75 7 2
      vertex 32.1222 2.6 2
      vertex 37.3222 2.6 2
    endloop
  endfacet
  facet normal 0 0 1
    outer loop
      vertex 32.1222 2.6 2
      vertex 30.3778 2.6 2
      vertex 32.1222 -2.6 2
    endloop
  endfacet
  facet normal -0 0 1
    outer loop
      vertex -5 7 2
      vertex 32.1222 2.6 2
      vertex 75 7 2
    endloop
  endfacet
  facet normal 0 0 1
    outer loop
      vertex 32.1222 2.6 2
      vertex -5 7 2
      vertex 30.3778 2.6 2
    endloop
  endfacet
  facet normal 0 0 1
    outer loop
      vertex 25.1778 2.6 2
      vertex 23.4333 2.6 2
      vertex 25.1778 -2.6 2
    endloop
  endfacet
  facet normal 0 0 1
    outer loop
      vertex 30.3778 2.6 2
      vertex -5 7 2
      vertex 25.1778 2.6 2
    endloop
  endfacet
  facet normal 0 0 1
    outer loop
      vertex 25.1778 2.6 2
      vertex -5 7 2
      vertex 23.4333 2.6 2
    endloop
  endfacet
  facet normal 0 0 1
    outer loop
      vertex 18.2333 2.6 2
      vertex 16.4889 2.6 2
      vertex 18.2333 -2.6 2
    endloop
  endfacet
  facet normal 0 0 1
    outer loop
      vertex 23.4333 2.6 2
      vertex -5 7 2
      vertex 18.2333 2.6 2
    endloop
  endfacet
  facet normal 0 0 1
    outer loop
      vertex 18.2333 2.6 2
      vertex -5 7 2
      vertex 16.4889 2.6 2
    endloop
  endfacet
  facet normal 0 0 1
    outer loop
      vertex 11.2889 2.6 2
      vertex 9.54444 2.6 2
      vertex 11.2889 -2.6 2
    endloop
  endfacet
  facet normal 0 0 1
    outer loop
      vertex 16.4889 2.6 2
      vertex -5 7 2
      vertex 11.2889 2.6 2
    endloop
  endfacet
  facet normal 0 0 1
    outer loop
      vertex 11.2889 2.6 2
      vertex -5 7 2
      vertex 9.54444 2.6 2
    endloop
  endfacet
  facet normal 0 0 1
    outer loop
      vertex 4.34444 2.6 2
      vertex 2.6 2.6 2
      vertex 4.34444 -2.6 2
    endloop
  endfacet
  facet normal 0 0 1
    outer loop
      vertex 9.54444 2.6 2
      vertex -5 7 2
      vertex 4.34444 2.6 2
    endloop
  endfacet
  facet normal 0 0 1
    outer loop
      vertex 4.34444 2.6 2
      vertex -5 7 2
      vertex 2.6 2.6 2
    endloop
  endfacet
  facet normal 0 0 1
    outer loop
      vertex -2.6 2.6 2
      vertex -5 7 2
      vertex -2.6 -2.6 2
    endloop
  endfacet
  facet normal 0 0 1
    outer loop
      vertex 2.6 2.6 2
      vertex -5 7 2
      vertex -2.6 2.6 2
    endloop
  endfacet
  facet normal -0 0 1
    outer loop
      vertex 72.0444 -2.6 2
      vertex 75 -7 2
      vertex 72.0444 2.6 2
    endloop
  endfacet
  facet normal -0 0 1
    outer loop
      vertex 66.8444 -2.6 2
      vertex 75 -7 2
      vertex 72.0444 -2.6 2
    endloop
  endfacet
  facet normal 0 0 1
    outer loop
      vertex 65.1 -2.6 2
      vertex 66.8444 -2.6 2
      vertex 65.1 2.6 2
    endloop
  endfacet
  facet normal -0 0 1
    outer loop
      vertex 65.1 -2.6 2
      vertex 75 -7 2
      vertex 66.8444 -2.6 2
    endloop
  endfacet
  facet normal -0 0 1
    outer loop
      vertex 59.9 -2.6 2
      vertex 75 -7 2
      vertex 65.1 -2.6 2
    endloop
  endfacet
  facet normal 0 0 1
    outer loop
      vertex 58.1556 -2.6 2
      vertex 59.9 -2.6 2
      vertex 58.1556 2.6 2
    endloop
  endfacet
  facet normal -0 0 1
    outer loop
      vertex 58.1556 -2.6 2
      vertex 75 -7 2
      vertex 59.9 -2.6 2
    endloop
  endfacet
  facet normal -0 0 1
    outer loop
      vertex 52.9556 -2.6 2
      vertex 75 -7 2
      vertex 58.1556 -2.6 2
    endloop
  endfacet
  facet normal 0 0 1
    outer loop
      vertex 51.2111 -2.6 2
      vertex 52.9556 -2.6 2
      vertex 51.2111 2.6 2
    endloop
  endfacet
  facet normal -0 0 1
    outer loop
      vertex 51.2111 -2.6 2
      vertex 75 -7 2
      vertex 52.9556 -2.6 2
    endloop
  endfacet
  facet normal -0 0 1
    outer loop
      vertex 46.0111 -2.6 2
      vertex 75 -7 2
      vertex 51.2111 -2.6 2
    endloop
  endfacet
  facet normal 0 0 1
    outer loop
      vertex 44.2667 -2.6 2
      vertex 46.0111 -2.6 2
      vertex 44.2667 2.6 2
    endloop
  endfacet
  facet normal -0 0 1
    outer loop
      vertex 44.2667 -2.6 2
      vertex 75 -7 2
      vertex 46.0111 -2.6 2
    endloop
  endfacet
  facet normal -0 0 1
    outer loop
      vertex 39.0667 -2.6 2
      vertex 75 -7 2
      vertex 44.2667 -2.6 2
    endloop
  endfacet
  facet normal 0 0 1
    outer loop
      vertex 37.3222 -2.6 2
      vertex 39.0667 -2.6 2
      vertex 37.3222 2.6 2
    endloop
  endfacet
  facet normal -0 0 1
    outer loop
      vertex 37.3222 -2.6 2
      vertex 75 -7 2
      vertex 39.0667 -2.6 2
    endloop
  endfacet
  facet normal -0 0 1
    outer loop
      vertex 32.1222 -2.6 2
      vertex 75 -7 2
      vertex 37.3222 -2.6 2
    endloop
  endfacet
  facet normal 0 0 1
    outer loop
      vertex 30.3778 -2.6 2
      vertex 32.1222 -2.6 2
      vertex 30.3778 2.6 2
    endloop
  endfacet
  facet normal 0 0 1
    outer loop
      vertex -5 -7 2
      vertex 32.1222 -2.6 2
      vertex 30.3778 -2.6 2
    endloop
  endfacet
  facet normal 0 0 1
    outer loop
      vertex -5 -7 2
      vertex 30.3778 -2.6 2
      vertex 25.1778 -2.6 2
    endloop
  endfacet
  facet normal 0 0 1
    outer loop
      vertex 23.4333 -2.6 2
      vertex 25.1778 -2.6 2
      vertex 23.4333 2.6 2
    endloop
  endfacet
  facet normal 0 0 1
    outer loop
      vertex -5 -7 2
      vertex 25.1778 -2.6 2
      vertex 23.4333 -2.6 2
    endloop
  endfacet
  facet normal 0 0 1
    outer loop
      vertex -5 -7 2
      vertex 23.4333 -2.6 2
      vertex 18.2333 -2.6 2
    endloop
  endfacet
  facet normal 0 0 1
    outer loop
      vertex 16.4889 -2.6 2
      vertex 18.2333 -2.6 2
      vertex 16.4889 2.6 2
    endloop
  endfacet
  facet normal 0 0 1
    outer loop
      vertex -5 -7 2
      vertex 18.2333 -2.6 2
      vertex 16.4889 -2.6 2
    endloop
  endfacet
  facet normal 0 0 1
    outer loop
      vertex -5 -7 2
      vertex 16.4889 -2.6 2
      vertex 11.2889 -2.6 2
    endloop
  endfacet
  facet normal 0 0 1
    outer loop
      vertex 9.54444 -2.6 2
      vertex 11.2889 -2.6 2
      vertex 9.54444 2.6 2
    endloop
  endfacet
  facet normal 0 0 1
    outer loop
      vertex -5 -7 2
      vertex 11.2889 -2.6 2
      vertex 9.54444 -2.6 2
    endloop
  endfacet
  facet normal 0 0 1
    outer loop
      vertex -5 -7 2
      vertex 9.54444 -2.6 2
      vertex 4.34444 -2.6 2
    endloop
  endfacet
  facet normal 0 0 1
    outer loop
      vertex 2.6 -2.6 2
      vertex 4.34444 -2.6 2
      vertex 2.6 2.6 2
    endloop
  endfacet
  facet normal 0 0 1
    outer loop
      vertex -5 -7 2
      vertex 4.34444 -2.6 2
      vertex 2.6 -2.6 2
    endloop
  endfacet
  facet normal 0 0 1
    outer loop
      vertex -5 -7 2
      vertex 2.6 -2.6 2
      vertex -2.6 -2.6 2
    endloop
  endfacet
  facet normal 0 0 1
    outer loop
      vertex 32.1222 -2.6 2
      vertex -5 -7 2
      vertex 75 -7 2
    endloop
  endfacet
  facet normal 0 0 1
    outer loop
      vertex -5 -7 2
      vertex -2.6 -2.6 2
      vertex -5 7 2
    endloop
  endfacet
  facet normal 0 1 -0
    outer loop
      vertex 75 -7 2
      vertex -5 -7 5
      vertex 75 -7 5
    endloop
  endfacet
  facet normal 0 1 0
    outer loop
      vertex -5 -7 5
      vertex 75 -7 2
      vertex -5 -7 2
    endloop
  endfacet
endsolid OpenSCAD_Model
